# This file uses centimeters as units for non-parametric coordinates.

mtllib component2.mtl
g default
v -0.500000 -0.500000 0.376758
v 0.500000 -0.500000 0.376758
v -0.500000 0.500000 0.376758
v 0.500000 0.500000 0.376758
v -0.500000 0.500000 -0.623242
v 0.500000 0.500000 -0.623242
v -0.500000 -0.500000 -0.623242
v 0.500000 -0.500000 -0.623242
v -0.500000 0.500000 -0.289909
v -0.500000 -0.500000 -0.289909
v 0.500000 -0.500000 -0.289909
v 0.500000 0.500000 -0.289909
v -0.500000 0.500000 0.043425
v -0.500000 -0.500000 0.043425
v 0.500000 -0.500000 0.043425
v 0.500000 0.500000 0.043425
v 0.166667 0.500000 0.376758
v 0.166667 0.500000 0.043425
v 0.166667 0.500000 -0.289909
v 0.166667 0.500000 -0.623242
v 0.166667 -0.500000 -0.623242
v 0.166667 -0.500000 -0.289909
v 0.166667 -0.500000 0.043425
v 0.166667 -0.500000 0.376758
v -0.166667 0.500000 0.376758
v -0.166667 0.500000 0.043425
v -0.166667 0.500000 -0.289909
v -0.166667 0.500000 -0.623242
v -0.166667 -0.500000 -0.623242
v -0.166667 -0.500000 -0.289909
v -0.166667 -0.500000 0.043425
v -0.166667 -0.500000 0.376758
v -0.166667 0.087946 0.043425
v -0.166667 0.087946 -0.289909
v 0.166667 0.087946 0.043425
v 0.166667 0.087946 -0.289909
v -0.166667 -0.087946 -0.289909
v -0.166667 -0.087946 0.043425
v 0.166667 -0.087946 -0.289909
v 0.166667 -0.087946 0.043425
v -0.751280 -0.500000 -0.289909
v -0.751280 -0.500000 0.043425
v -0.751280 0.500000 0.043425
v -0.751280 0.500000 -0.289909
v 0.751280 -0.500000 0.043425
v 0.751280 0.500000 0.043425
v 0.751280 -0.500000 -0.289909
v 0.751280 0.500000 -0.289909
v -0.166667 0.500000 -0.874522
v -0.166667 -0.500000 -0.874522
v 0.166667 0.500000 -0.874522
v 0.166667 -0.500000 -0.874522
v -0.166667 -0.500000 0.628038
v -0.166667 0.500000 0.628038
v 0.166667 -0.500000 0.628038
v 0.166667 0.500000 0.628038
v -0.500000 0.811836 0.376758
v -0.166667 0.811836 0.376758
v -0.166667 0.811836 0.043425
v -0.500000 0.811836 0.043425
v -0.500000 -0.811836 0.043425
v -0.166667 -0.811836 0.043425
v -0.166667 -0.811836 0.376758
v -0.500000 -0.811836 0.376758
v -0.500000 -0.811836 -0.623242
v -0.166667 -0.811836 -0.623242
v -0.166667 -0.811836 -0.289909
v -0.500000 -0.811836 -0.289909
v -0.166667 0.811836 -0.289909
v -0.500000 0.811836 -0.289909
v -0.166667 0.811836 -0.623242
v -0.500000 0.811836 -0.623242
v 0.166667 0.811836 0.376758
v 0.500000 0.811836 0.376758
v 0.500000 0.811836 0.043425
v 0.166667 0.811836 0.043425
v 0.166667 0.811836 -0.289909
v 0.166667 0.811836 -0.623242
v 0.500000 0.811836 -0.289909
v 0.500000 0.811836 -0.623242
v 0.166667 -0.811836 -0.623242
v 0.166667 -0.811836 -0.289909
v 0.500000 -0.811836 -0.623242
v 0.500000 -0.811836 -0.289909
v 0.166667 -0.811836 0.043425
v 0.166667 -0.811836 0.376758
v 0.500000 -0.811836 0.043425
v 0.500000 -0.811836 0.376758
vt 0.375000 0.000000
vt 0.625000 0.000000
vt 0.375000 0.250000
vt 0.625000 0.250000
vt 0.375000 0.500000
vt 0.625000 0.500000
vt 0.375000 0.750000
vt 0.625000 0.750000
vt 0.375000 1.000000
vt 0.625000 1.000000
vt 0.875000 0.000000
vt 0.875000 0.250000
vt 0.125000 0.000000
vt 0.125000 0.250000
vt 0.208333 0.250000
vt 0.375000 0.416667
vt 0.208333 0.000000
vt 0.375000 0.833333
vt 0.625000 0.833333
vt 0.791667 0.000000
vt 0.625000 0.416667
vt 0.791667 0.250000
vt 0.291667 0.250000
vt 0.375000 0.333333
vt 0.291667 0.000000
vt 0.375000 0.916667
vt 0.625000 0.916667
vt 0.708333 0.000000
vt 0.625000 0.333333
vt 0.708333 0.250000
vt 0.541667 0.250000
vt 0.541667 0.333333
vt 0.541667 0.416667
vt 0.541667 0.500000
vt 0.541667 0.750000
vt 0.541667 0.833333
vt 0.541667 0.916667
vt 0.541667 0.000000
vt 0.541667 1.000000
vt 0.458333 0.250000
vt 0.458333 0.333333
vt 0.458333 0.416667
vt 0.458333 0.500000
vt 0.458333 0.750000
vt 0.458333 0.833333
vt 0.458333 0.916667
vt 0.458333 0.000000
vt 0.458333 1.000000
vt 0.458333 0.416667
vt 0.458333 0.333333
vt 0.541667 0.333333
vt 0.541667 0.416667
vt 0.458333 0.916667
vt 0.458333 0.833333
vt 0.541667 0.833333
vt 0.541667 0.916667
vt 0.208333 0.000000
vt 0.291667 0.000000
vt 0.291667 0.250000
vt 0.208333 0.250000
vt 0.708333 0.250000
vt 0.708333 0.000000
vt 0.791667 0.000000
vt 0.791667 0.250000
vt 0.458333 0.750000
vt 0.458333 0.500000
vt 0.541667 0.500000
vt 0.541667 0.750000
vt 0.458333 0.250000
vt 0.458333 0.000000
vt 0.541667 0.000000
vt 0.541667 0.250000
vt 0.375000 0.250000
vt 0.458333 0.250000
vt 0.458333 0.333333
vt 0.375000 0.333333
vt 0.375000 0.916667
vt 0.458333 0.916667
vt 0.458333 1.000000
vt 0.375000 1.000000
vt 0.375000 0.750000
vt 0.458333 0.750000
vt 0.458333 0.833333
vt 0.375000 0.833333
vt 0.375000 0.416667
vt 0.458333 0.416667
vt 0.458333 0.500000
vt 0.375000 0.500000
vt 0.541667 0.250000
vt 0.625000 0.250000
vt 0.625000 0.333333
vt 0.541667 0.333333
vt 0.541667 0.500000
vt 0.541667 0.416667
vt 0.625000 0.416667
vt 0.625000 0.500000
vt 0.541667 0.833333
vt 0.541667 0.750000
vt 0.625000 0.750000
vt 0.625000 0.833333
vt 0.541667 1.000000
vt 0.541667 0.916667
vt 0.625000 0.916667
vt 0.625000 1.000000
vn 0.000000 0.000000 1.000000
vn 0.000000 0.000000 1.000000
vn 0.000000 0.000000 1.000000
vn 0.000000 0.000000 1.000000
vn 0.000000 1.000000 0.000000
vn 0.000000 1.000000 0.000000
vn 0.000000 1.000000 0.000000
vn 0.000000 1.000000 0.000000
vn 0.000000 0.000000 -1.000000
vn 0.000000 0.000000 -1.000000
vn 0.000000 0.000000 -1.000000
vn 0.000000 0.000000 -1.000000
vn 0.000000 -1.000000 0.000000
vn 0.000000 -1.000000 0.000000
vn 0.000000 -1.000000 0.000000
vn 0.000000 -1.000000 0.000000
vn 1.000000 0.000000 0.000000
vn 1.000000 0.000000 0.000000
vn 1.000000 0.000000 0.000000
vn 1.000000 0.000000 0.000000
vn -1.000000 0.000000 0.000000
vn -1.000000 0.000000 0.000000
vn -1.000000 0.000000 0.000000
vn -1.000000 0.000000 0.000000
vn -1.000000 0.000000 0.000000
vn -1.000000 0.000000 0.000000
vn -1.000000 0.000000 0.000000
vn -1.000000 0.000000 0.000000
vn 0.000000 -1.000000 0.000000
vn 0.000000 -1.000000 0.000000
vn 0.000000 -1.000000 0.000000
vn 0.000000 -1.000000 0.000000
vn 1.000000 0.000000 0.000000
vn 1.000000 0.000000 0.000000
vn 1.000000 0.000000 0.000000
vn 1.000000 0.000000 0.000000
vn 0.000000 1.000000 0.000000
vn 0.000000 1.000000 0.000000
vn 0.000000 1.000000 0.000000
vn 0.000000 1.000000 0.000000
vn -1.000000 0.000000 0.000000
vn -1.000000 0.000000 0.000000
vn -1.000000 0.000000 0.000000
vn -1.000000 0.000000 0.000000
vn 0.000000 -1.000000 0.000000
vn 0.000000 -1.000000 0.000000
vn 0.000000 -1.000000 0.000000
vn 0.000000 -1.000000 0.000000
vn 1.000000 0.000000 0.000000
vn 1.000000 0.000000 0.000000
vn 1.000000 0.000000 0.000000
vn 1.000000 0.000000 0.000000
vn 0.000000 1.000000 0.000000
vn 0.000000 1.000000 0.000000
vn 0.000000 1.000000 0.000000
vn 0.000000 1.000000 0.000000
vn 0.000000 1.000000 0.000000
vn 0.000000 1.000000 0.000000
vn 0.000000 1.000000 0.000000
vn 0.000000 1.000000 0.000000
vn 0.000000 1.000000 0.000000
vn 0.000000 1.000000 0.000000
vn 0.000000 1.000000 0.000000
vn 0.000000 1.000000 0.000000
vn 0.000000 1.000000 0.000000
vn 0.000000 1.000000 0.000000
vn 0.000000 1.000000 0.000000
vn 0.000000 1.000000 0.000000
vn 0.000000 0.000000 -1.000000
vn 0.000000 0.000000 -1.000000
vn 0.000000 0.000000 -1.000000
vn 0.000000 0.000000 -1.000000
vn 0.000000 -1.000000 0.000000
vn 0.000000 -1.000000 0.000000
vn 0.000000 -1.000000 0.000000
vn 0.000000 -1.000000 0.000000
vn 0.000000 -1.000000 0.000000
vn 0.000000 -1.000000 0.000000
vn 0.000000 -1.000000 0.000000
vn 0.000000 -1.000000 0.000000
vn 0.000000 -1.000000 0.000000
vn 0.000000 -1.000000 0.000000
vn 0.000000 -1.000000 0.000000
vn 0.000000 -1.000000 0.000000
vn 0.000000 0.000000 1.000000
vn 0.000000 0.000000 1.000000
vn 0.000000 0.000000 1.000000
vn 0.000000 0.000000 1.000000
vn 0.000000 1.000000 0.000000
vn 0.000000 1.000000 0.000000
vn 0.000000 1.000000 0.000000
vn 0.000000 1.000000 0.000000
vn 0.000000 1.000000 0.000000
vn 0.000000 1.000000 0.000000
vn 0.000000 1.000000 0.000000
vn 0.000000 1.000000 0.000000
vn 0.000000 1.000000 0.000000
vn 0.000000 1.000000 0.000000
vn 0.000000 1.000000 0.000000
vn 0.000000 1.000000 0.000000
vn 0.000000 0.000000 -1.000000
vn 0.000000 0.000000 -1.000000
vn 0.000000 0.000000 -1.000000
vn 0.000000 0.000000 -1.000000
vn 0.000000 -1.000000 0.000000
vn 0.000000 -1.000000 0.000000
vn 0.000000 -1.000000 0.000000
vn 0.000000 -1.000000 0.000000
vn 0.000000 -1.000000 0.000000
vn 0.000000 -1.000000 0.000000
vn 0.000000 -1.000000 0.000000
vn 0.000000 -1.000000 0.000000
vn 0.000000 -1.000000 0.000000
vn 0.000000 -1.000000 0.000000
vn 0.000000 -1.000000 0.000000
vn 0.000000 -1.000000 0.000000
vn 0.000000 0.000000 1.000000
vn 0.000000 0.000000 1.000000
vn 0.000000 0.000000 1.000000
vn 0.000000 0.000000 1.000000
vn 1.000000 0.000000 0.000000
vn 1.000000 0.000000 0.000000
vn 1.000000 0.000000 0.000000
vn 1.000000 0.000000 0.000000
vn 0.000000 0.000000 -1.000000
vn 0.000000 0.000000 -1.000000
vn 0.000000 0.000000 -1.000000
vn 0.000000 0.000000 -1.000000
vn -1.000000 0.000000 0.000000
vn -1.000000 0.000000 0.000000
vn -1.000000 0.000000 0.000000
vn -1.000000 0.000000 0.000000
vn 0.000000 0.000000 1.000000
vn 0.000000 0.000000 1.000000
vn 0.000000 0.000000 1.000000
vn 0.000000 0.000000 1.000000
vn 1.000000 0.000000 0.000000
vn 1.000000 0.000000 0.000000
vn 1.000000 0.000000 0.000000
vn 1.000000 0.000000 0.000000
vn 0.000000 0.000000 1.000000
vn 0.000000 0.000000 1.000000
vn 0.000000 0.000000 1.000000
vn 0.000000 0.000000 1.000000
vn -1.000000 0.000000 0.000000
vn -1.000000 0.000000 0.000000
vn -1.000000 0.000000 0.000000
vn -1.000000 0.000000 0.000000
vn 0.000000 0.000000 -1.000000
vn 0.000000 0.000000 -1.000000
vn 0.000000 0.000000 -1.000000
vn 0.000000 0.000000 -1.000000
vn 0.000000 -1.000000 0.000000
vn 0.000000 -1.000000 0.000000
vn 0.000000 0.000000 1.000000
vn 0.000000 0.000000 1.000000
vn 0.000000 0.000000 1.000000
vn 0.000000 0.000000 1.000000
vn 0.000000 1.000000 0.000000
vn 0.000000 1.000000 0.000000
vn 0.000000 0.000000 -1.000000
vn 0.000000 0.000000 -1.000000
vn 0.000000 0.000000 -1.000000
vn 0.000000 0.000000 -1.000000
vn 0.000000 0.000000 1.000000
vn 0.000000 0.000000 1.000000
vn 0.000000 0.000000 1.000000
vn 0.000000 0.000000 1.000000
vn 0.000000 -1.000000 0.000000
vn 0.000000 -1.000000 0.000000
vn 0.000000 0.000000 -1.000000
vn 0.000000 0.000000 -1.000000
vn 0.000000 0.000000 -1.000000
vn 0.000000 0.000000 -1.000000
vn 0.000000 1.000000 0.000000
vn 0.000000 1.000000 0.000000
vn -1.000000 0.000000 0.000000
vn -1.000000 0.000000 0.000000
vn -1.000000 0.000000 0.000000
vn -1.000000 0.000000 0.000000
vn 0.000000 1.000000 0.000000
vn 0.000000 1.000000 0.000000
vn 1.000000 0.000000 0.000000
vn 1.000000 0.000000 0.000000
vn 1.000000 0.000000 0.000000
vn 1.000000 0.000000 0.000000
vn 0.000000 -1.000000 0.000000
vn 0.000000 -1.000000 0.000000
vn -1.000000 0.000000 0.000000
vn -1.000000 0.000000 0.000000
vn -1.000000 0.000000 0.000000
vn -1.000000 0.000000 0.000000
vn 0.000000 -1.000000 0.000000
vn 0.000000 -1.000000 0.000000
vn 1.000000 0.000000 0.000000
vn 1.000000 0.000000 0.000000
vn 1.000000 0.000000 0.000000
vn 1.000000 0.000000 0.000000
vn 0.000000 1.000000 0.000000
vn 0.000000 1.000000 0.000000
vn 0.000000 0.000000 1.000000
vn 0.000000 0.000000 1.000000
vn 1.000000 0.000000 0.000000
vn 1.000000 0.000000 0.000000
vn 1.000000 0.000000 0.000000
vn 1.000000 0.000000 0.000000
vn 0.000000 0.000000 -1.000000
vn 0.000000 0.000000 -1.000000
vn 0.000000 0.000000 -1.000000
vn 0.000000 0.000000 -1.000000
vn -1.000000 0.000000 0.000000
vn -1.000000 0.000000 0.000000
vn 0.000000 0.000000 -1.000000
vn 0.000000 0.000000 -1.000000
vn 0.000000 0.000000 -1.000000
vn 0.000000 0.000000 -1.000000
vn 1.000000 0.000000 0.000000
vn 1.000000 0.000000 0.000000
vn 1.000000 0.000000 0.000000
vn 1.000000 0.000000 0.000000
vn 0.000000 0.000000 1.000000
vn 0.000000 0.000000 1.000000
vn -1.000000 0.000000 0.000000
vn -1.000000 0.000000 0.000000
vn 0.000000 0.000000 -1.000000
vn 0.000000 0.000000 -1.000000
vn 1.000000 0.000000 0.000000
vn 1.000000 0.000000 0.000000
vn 1.000000 0.000000 0.000000
vn 1.000000 0.000000 0.000000
vn 0.000000 0.000000 1.000000
vn 0.000000 0.000000 1.000000
vn 0.000000 0.000000 1.000000
vn 0.000000 0.000000 1.000000
vn -1.000000 0.000000 0.000000
vn -1.000000 0.000000 0.000000
vn 0.000000 0.000000 1.000000
vn 0.000000 0.000000 1.000000
vn 0.000000 0.000000 1.000000
vn 0.000000 0.000000 1.000000
vn 1.000000 0.000000 0.000000
vn 1.000000 0.000000 0.000000
vn 1.000000 0.000000 0.000000
vn 1.000000 0.000000 0.000000
vn 0.000000 0.000000 -1.000000
vn 0.000000 0.000000 -1.000000
vn -1.000000 0.000000 0.000000
vn -1.000000 0.000000 0.000000
vn 0.000000 0.000000 1.000000
vn 0.000000 0.000000 1.000000
vn 1.000000 0.000000 0.000000
vn 1.000000 0.000000 0.000000
vn 0.000000 0.000000 -1.000000
vn 0.000000 0.000000 -1.000000
vn 0.000000 0.000000 -1.000000
vn 0.000000 0.000000 -1.000000
vn -1.000000 0.000000 0.000000
vn -1.000000 0.000000 0.000000
vn -1.000000 0.000000 0.000000
vn -1.000000 0.000000 0.000000
vn -1.000000 0.000000 0.000000
vn -1.000000 0.000000 0.000000
vn -1.000000 0.000000 0.000000
vn -1.000000 0.000000 0.000000
vn 0.000000 0.000000 1.000000
vn 0.000000 0.000000 1.000000
vn 0.000000 0.000000 1.000000
vn 0.000000 0.000000 1.000000
vn 1.000000 0.000000 0.000000
vn 1.000000 0.000000 0.000000
vn 0.000000 0.000000 -1.000000
vn 0.000000 0.000000 -1.000000
vn -1.000000 0.000000 0.000000
vn -1.000000 0.000000 0.000000
vn -1.000000 0.000000 0.000000
vn -1.000000 0.000000 0.000000
vn 0.000000 0.000000 -1.000000
vn 0.000000 0.000000 -1.000000
vn 1.000000 0.000000 0.000000
vn 1.000000 0.000000 0.000000
vn 0.000000 0.000000 1.000000
vn 0.000000 0.000000 1.000000
vn 0.000000 0.000000 1.000000
vn 0.000000 0.000000 1.000000
vn -1.000000 0.000000 0.000000
vn -1.000000 0.000000 0.000000
vn -1.000000 0.000000 0.000000
vn -1.000000 0.000000 0.000000
vn 0.000000 0.000000 -1.000000
vn 0.000000 0.000000 -1.000000
vn 0.000000 0.000000 -1.000000
vn 0.000000 0.000000 -1.000000
vn 1.000000 0.000000 0.000000
vn 1.000000 0.000000 0.000000
vn 0.000000 0.000000 1.000000
vn 0.000000 0.000000 1.000000
s 1
g pCube2
usemtl initialShadingGroup
f 1/1/1 32/47/2 25/40/3 3/3/4
s off
f 57/73/5 58/74/6 59/75/7 60/76/8
s 2
f 5/5/9 28/43/10 29/44/11 7/7/12
s off
f 61/77/13 62/78/14 63/79/15 64/80/16
s 3
f 2/2/17 15/28/18 16/30/19 4/4/20
s 4
f 14/25/21 1/1/22 3/3/23 13/23/24
s 5
f 7/13/25 10/17/26 9/15/27 5/14/28
s off
f 65/81/29 66/82/30 67/83/31 68/84/32
s 6
f 12/22/33 11/20/34 8/11/35 6/12/36
s off
f 70/85/37 69/86/38 71/87/39 72/88/40
f 41/57/41 42/58/42 43/59/43 44/60/44
s 7
f 10/18/45 30/45/46 31/46/47 14/26/48
s off
f 46/61/49 45/62/50 47/63/51 48/64/52
s 8
f 13/24/53 26/41/54 27/42/55 9/16/56
s off
f 73/89/57 74/90/58 75/91/59 76/92/60
s 9
f 19/33/61 18/32/62 16/29/63 12/21/64
s off
f 78/93/65 77/94/66 79/95/67 80/96/68
s 10
f 21/35/69 20/34/70 6/6/71 8/8/72
s off
f 82/97/73 81/98/74 83/99/75 84/100/76
s 11
f 23/37/77 22/36/78 11/19/79 15/27/80
s off
f 86/101/81 85/102/82 87/103/83 88/104/84
s 12
f 17/31/85 24/38/86 2/2/87 4/4/88
s 13
f 25/40/89 17/31/90 18/32/91 26/41/92
s off
f 34/49/93 33/50/94 35/51/95 36/52/96
s 14
f 28/43/97 27/42/98 19/33/99 20/34/100
s off
f 50/65/101 49/66/102 51/67/103 52/68/104
s 15
f 30/45/105 29/44/106 21/35/107 22/36/108
s off
f 38/53/109 37/54/110 39/55/111 40/56/112
s 16
f 32/48/113 31/46/114 23/37/115 24/39/116
s off
f 54/69/117 53/70/118 55/71/119 56/72/120
f 27/42/121 26/41/122 33/50/123 34/49/124
f 26/41/125 18/32/126 35/51/127 33/50/128
f 18/32/129 19/33/130 36/52/131 35/51/132
f 19/33/133 27/42/134 34/49/135 36/52/136
f 31/46/137 30/45/138 37/54/139 38/53/140
f 30/45/141 22/36/142 39/55/143 37/54/144
f 22/36/145 23/37/146 40/56/147 39/55/148
f 23/37/149 31/46/150 38/53/151 40/56/152
s 7
f 10/17/45 14/25/48 42/58/153 41/57/154
s off
f 14/25/155 13/23/156 43/59/157 42/58/158
s 8
f 13/23/53 9/15/56 44/60/159 43/59/160
s off
f 9/15/161 10/17/162 41/57/163 44/60/164
f 16/30/165 15/28/166 45/62/167 46/61/168
s 11
f 15/28/80 11/20/79 47/63/169 45/62/170
s off
f 11/20/171 12/22/172 48/64/173 47/63/174
s 9
f 12/22/64 16/30/63 46/61/175 48/64/176
s off
f 29/44/177 28/43/178 49/66/179 50/65/180
s 14
f 28/43/97 20/34/100 51/67/181 49/66/182
s off
f 20/34/183 21/35/184 52/68/185 51/67/186
s 15
f 21/35/107 29/44/106 50/65/187 52/68/188
s off
f 25/40/189 32/47/190 53/70/191 54/69/192
s 16
f 32/47/113 24/38/116 55/71/193 53/70/194
s off
f 24/38/195 17/31/196 56/72/197 55/71/198
s 13
f 17/31/90 25/40/89 54/69/199 56/72/200
s 1
f 3/3/4 25/40/3 58/74/201 57/73/202
s off
f 25/40/203 26/41/204 59/75/205 58/74/206
f 26/41/207 13/24/208 60/76/209 59/75/210
s 4
f 13/24/24 3/3/23 57/73/211 60/76/212
s off
f 14/26/213 31/46/214 62/78/215 61/77/216
f 31/46/217 32/48/218 63/79/219 62/78/220
s 1
f 32/48/2 1/9/1 64/80/221 63/79/222
s 4
f 1/9/22 14/26/21 61/77/223 64/80/224
s 2
f 7/7/12 29/44/11 66/82/225 65/81/226
s off
f 29/44/227 30/45/228 67/83/229 66/82/230
f 30/45/231 10/18/232 68/84/233 67/83/234
s 5
f 10/18/26 7/7/25 65/81/235 68/84/236
s off
f 9/16/237 27/42/238 69/86/239 70/85/240
f 27/42/241 28/43/242 71/87/243 69/86/244
s 2
f 28/43/10 5/5/9 72/88/245 71/87/246
s 5
f 5/5/28 9/16/27 70/85/247 72/88/248
s 12
f 17/31/85 4/4/88 74/90/249 73/89/250
s 3
f 4/4/20 16/29/19 75/91/251 74/90/252
s off
f 16/29/253 18/32/254 76/92/255 75/91/256
f 18/32/257 17/31/258 73/89/259 76/92/260
f 20/34/261 19/33/262 77/94/263 78/93/264
f 19/33/265 12/21/266 79/95/267 77/94/268
s 6
f 12/21/33 6/6/36 80/96/269 79/95/270
s 10
f 6/6/71 20/34/70 78/93/271 80/96/272
s off
f 22/36/273 21/35/274 81/98/275 82/97/276
s 10
f 21/35/69 8/8/72 83/99/277 81/98/278
s 6
f 8/8/35 11/19/34 84/100/279 83/99/280
s off
f 11/19/281 22/36/282 82/97/283 84/100/284
f 24/39/285 23/37/286 85/102/287 86/101/288
f 23/37/289 15/27/290 87/103/291 85/102/292
s 3
f 15/27/18 2/10/17 88/104/293 87/103/294
s 12
f 2/10/87 24/39/86 86/101/295 88/104/296
